<svg version="1.1" id="Layer_1" xmlns="http://www.w3.org/2000/svg" xmlns:xlink="http://www.w3.org/1999/xlink" x="0px" y="0px"
	 width="100%" viewBox="0 0 877 574" enable-background="new 0 0 877 574" xml:space="preserve">
<path fill="#000000" opacity="1.000000" stroke="none" 
	d="
M494.000000,575.000000 
	C329.333344,575.000000 165.166672,575.000000 1.000000,575.000000 
	C1.000000,383.666656 1.000000,192.333328 1.000000,1.000000 
	C293.333344,1.000000 585.666687,1.000000 878.000000,1.000000 
	C878.000000,192.333328 878.000000,383.666656 878.000000,575.000000 
	C750.166687,575.000000 622.333313,575.000000 494.000000,575.000000 
M387.460419,426.096313 
	C387.367493,426.428040 387.274567,426.759796 387.026489,427.461945 
	C387.026489,427.461945 387.007874,427.863037 386.312195,428.238861 
	C385.875671,428.978729 385.439148,429.718628 384.689423,430.989380 
	C392.463715,430.989380 399.556458,431.064819 406.645844,430.944214 
	C408.826416,430.907135 410.997833,430.334259 413.804260,429.736969 
	C420.889008,418.469086 427.973755,407.201202 435.515106,395.207123 
	C442.739685,406.620056 449.447327,417.216370 456.067719,428.416229 
	C456.374542,428.656708 456.681335,428.897186 457.088989,429.579926 
	C457.260681,429.870300 457.515045,430.009125 458.338654,430.741730 
	C467.076996,430.823944 475.815369,430.907410 484.553711,430.987610 
	C487.310608,431.012909 487.662079,429.905579 485.724945,427.234955 
	C484.138977,425.107819 482.412842,423.070038 480.989868,420.838928 
	C472.058472,406.835632 463.353699,392.683899 454.182953,378.840271 
	C452.188660,375.829773 452.226196,373.784607 453.975403,371.079224 
	C458.462555,364.139069 462.719971,357.046631 467.331818,350.191742 
	C473.658844,340.787476 480.228271,331.546265 486.906311,321.929169 
	C485.695465,321.563812 484.828705,321.134552 483.932343,321.059845 
	C479.155243,320.661682 474.347992,319.896362 469.594879,320.133698 
	C464.301300,320.398071 458.372223,319.344299 454.923096,325.513000 
	C450.681885,333.098267 446.087524,340.489594 441.513611,347.882996 
	C440.300293,349.844238 438.602356,351.505707 436.461121,354.116699 
	C431.583710,345.957001 427.339417,338.556580 422.780396,331.355408 
	C420.484558,327.729065 417.617523,324.464386 414.568146,320.279205 
	C407.494781,320.220734 400.420654,320.082794 393.348511,320.151581 
	C391.190765,320.172577 389.038513,320.762421 386.236359,321.299408 
	C391.973145,330.186401 397.727753,339.061951 403.441406,347.963776 
	C408.644196,356.069580 414.039734,364.068939 418.798065,372.429504 
	C419.862671,374.300110 419.436646,377.939484 418.290192,379.970459 
	C415.201904,385.441467 411.274506,390.431732 407.825195,395.707581 
	C401.484436,405.406189 395.247650,415.172760 388.448914,425.089233 
	C388.269684,425.396790 388.090424,425.704315 388.004181,426.000244 
	C388.004181,426.000244 387.992706,425.907257 387.460419,426.096313 
M623.922852,355.471161 
	C623.617065,355.265808 623.311279,355.060455 622.980408,354.461151 
	C622.980408,354.461151 622.827087,354.097351 622.959961,353.304474 
	C623.335876,350.210907 623.711853,347.117310 624.004517,344.011261 
	C624.004517,344.011261 623.992615,344.094543 624.519409,343.911865 
	C624.719788,343.608582 624.920166,343.305267 625.529358,342.962036 
	C625.529358,342.962036 625.915955,342.823395 626.494629,342.932312 
	C626.721313,342.624847 626.948059,342.317383 627.541870,341.994415 
	C627.541870,341.994415 627.888306,341.872009 628.478821,341.986664 
	C628.699951,341.672668 628.921082,341.358673 629.871155,341.004333 
	C634.233826,340.819855 638.620239,340.259644 642.953918,340.533783 
	C650.579224,341.016174 653.907593,346.525848 656.055847,353.719543 
	C656.789062,354.430481 657.539246,355.772644 658.252808,355.753418 
	C664.490479,355.585693 670.721619,355.174561 677.396484,354.991547 
	C677.396484,354.991547 677.861328,355.050568 678.066406,355.566833 
	C678.425415,355.393372 678.784363,355.219910 679.485535,355.017761 
	C679.485535,355.017761 679.828674,355.004181 680.161987,355.599091 
	C680.460632,354.042145 680.759216,352.485229 680.977844,350.281067 
	C679.157837,336.712250 671.165405,327.645447 659.227539,322.172455 
	C649.719910,317.813599 639.243713,318.054474 629.213074,319.588104 
	C622.715027,320.581604 615.848938,322.824707 610.430115,326.433441 
	C600.249207,333.213562 595.847473,343.666290 597.066589,355.952515 
	C597.882202,364.172058 601.036987,371.155273 607.902344,376.667175 
	C615.041260,382.398712 623.350891,384.578094 631.725769,386.995514 
	C638.678650,389.002472 645.898315,390.383301 652.480103,393.238953 
	C655.325500,394.473450 658.450256,398.644012 658.597107,401.621460 
	C658.784973,405.430206 655.163086,408.160034 651.199707,410.109985 
	C643.491760,413.902191 636.502258,413.335876 628.936951,409.610657 
	C624.805054,407.576019 622.322693,405.404053 621.923584,400.735931 
	C621.605469,397.015625 620.187866,394.389343 615.398010,394.911072 
	C610.642212,395.429016 605.751648,394.695953 600.991699,395.194336 
	C598.516296,395.453522 595.776489,396.165924 595.885071,400.331909 
	C596.189758,412.022461 605.342163,423.526428 615.475891,427.854980 
	C630.532715,434.286407 646.123291,435.021393 661.608276,428.948761 
	C668.940613,426.073334 675.328674,422.023499 680.116699,415.278107 
	C684.775818,408.714325 684.271729,401.208984 684.752441,394.183990 
	C685.418274,384.454163 673.205811,371.706085 662.810730,368.939789 
	C650.872009,365.762665 639.004639,362.317139 626.914429,358.472595 
	C626.607666,358.291473 626.300964,358.110352 625.998657,358.003754 
	C625.998657,358.003754 626.073181,357.999725 625.927795,357.464905 
	C625.619263,357.284576 625.310791,357.104218 625.000610,356.997375 
	C625.000610,356.997375 625.074097,356.998657 624.930054,356.457794 
	C624.618469,356.274353 624.306824,356.090942 623.989746,356.004791 
	C623.989746,356.004791 624.086975,356.010834 623.922852,355.471161 
M259.015625,427.973694 
	C259.015625,427.973694 258.897125,427.977325 258.991821,428.627167 
	C259.308746,429.126038 259.625671,429.624908 259.956238,430.054382 
	C259.956238,430.054382 259.886322,430.065277 260.346771,430.818420 
	C269.455933,430.818420 278.565094,430.818420 287.529236,430.818420 
	C287.981995,428.770294 288.396240,426.896423 288.967285,424.095886 
	C288.921936,418.451630 288.876617,412.807404 289.028473,406.211792 
	C288.961639,396.754791 288.894806,387.297760 288.973999,376.933777 
	C288.986633,360.535309 289.016296,344.136810 289.003693,327.738342 
	C288.998535,321.026215 288.956848,320.998596 282.544556,321.018341 
	C276.385925,321.037323 270.227539,321.121826 263.219391,321.400970 
	C263.144592,340.342194 263.093903,359.283630 262.958069,378.224396 
	C262.944366,380.137451 262.416626,382.046814 261.818939,384.606628 
	C260.823761,383.881500 259.483582,383.368073 258.888275,382.397614 
	C254.338730,374.981171 250.064529,367.394287 245.455521,360.016083 
	C237.773605,347.718750 229.937149,335.517242 222.061142,323.343079 
	C221.393478,322.311066 219.952255,321.151520 218.848358,321.128937 
	C210.031494,320.948608 201.209305,321.028320 192.004944,321.028320 
	C192.367661,324.871063 192.948624,328.238251 192.961029,331.607544 
	C193.044464,354.248840 193.099976,376.891174 192.962738,399.531952 
	C192.908676,408.451904 192.452789,417.375305 191.946930,426.283905 
	C191.730942,430.088043 193.193665,431.249878 196.849731,431.079712 
	C202.165726,430.832245 207.511749,430.811890 212.825714,431.078369 
	C216.664322,431.270844 218.327545,430.164032 218.048737,426.053925 
	C217.512482,418.148285 217.149628,410.220795 217.064056,402.298584 
	C217.014526,397.713348 217.873627,393.122070 217.899750,388.531128 
	C217.921082,384.776367 217.076950,381.019470 217.054413,377.260895 
	C217.032822,373.659607 217.575104,370.054962 217.869568,366.451782 
	C218.344376,366.427216 218.819199,366.402618 219.294022,366.378052 
	C232.093323,386.594818 244.892624,406.811554 258.029694,427.513367 
	C258.359985,427.706299 258.690277,427.899231 259.015625,427.973694 
M519.978455,329.175934 
	C519.856628,327.197205 520.036438,325.132324 519.504822,323.270660 
	C519.162109,322.070618 517.763672,320.264038 516.858215,320.275635 
	C509.273987,320.372620 501.694336,320.828156 493.252197,321.382965 
	C493.164307,342.861633 493.008331,364.340454 493.044708,385.818909 
	C493.052185,390.223053 493.779755,394.626038 494.049316,399.794464 
	C494.349030,400.703522 494.675018,401.604889 494.944641,402.522797 
	C499.702484,418.721344 514.226379,430.246826 529.185730,431.704620 
	C538.123047,431.883301 547.101257,433.284607 556.711792,430.762421 
	C565.771362,428.684845 572.918762,423.609589 578.863708,416.643219 
	C583.929993,410.706299 587.126648,403.603180 587.800659,396.118591 
	C588.912354,383.774231 588.781860,371.309692 588.966675,358.892700 
	C589.127808,348.070984 589.039429,337.244781 588.971985,326.421112 
	C588.957153,324.058167 589.313110,321.098846 585.633057,321.056519 
	C577.865967,320.967194 570.097168,321.029327 561.999268,321.029327 
	C561.999268,323.195374 561.998840,324.829010 561.999329,326.462646 
	C562.005127,346.279175 562.341309,366.102936 561.909241,385.909912 
	C561.582214,400.899689 553.591370,408.526764 539.205139,408.797577 
	C533.213867,408.910400 526.880615,406.810944 523.649536,400.985229 
	C520.813110,395.871124 519.404480,390.161163 519.929443,384.049927 
	C520.297791,379.760712 519.893921,375.405151 519.985291,370.135559 
	C519.935425,356.736023 519.885498,343.336487 519.978455,329.175934 
M329.221069,320.311188 
	C327.640472,320.543213 326.062683,320.952148 324.478790,320.977356 
	C316.687592,321.101349 308.894745,321.123474 300.237366,321.372650 
	C300.159332,322.529877 300.013336,323.687134 300.013153,324.844360 
	C300.007019,358.971069 300.012665,393.097748 300.032257,427.224457 
	C300.032959,428.477814 300.192596,429.731140 300.279938,431.010345 
	C326.127869,431.010345 351.593872,431.000031 377.059845,431.024719 
	C379.918579,431.027466 382.676086,431.110748 381.965393,426.005310 
	C381.658630,420.171509 381.351868,414.337708 381.018402,407.995728 
	C372.807281,407.995728 364.967773,407.995728 356.736786,407.188232 
	C346.832092,407.180481 336.927368,407.172729 326.259399,406.704071 
	C326.259399,400.267456 326.259399,393.830811 326.259399,386.443481 
	C343.070862,386.443481 359.834991,386.443481 376.788696,386.443481 
	C376.788696,378.426819 376.788696,371.362366 376.788696,364.426666 
	C374.346497,363.990448 372.131927,363.594879 369.003052,363.045654 
	C355.009857,363.085510 341.016693,363.125366 326.281616,363.005005 
	C325.852448,358.579956 325.302307,354.161469 325.060944,349.726196 
	C324.978668,348.213989 325.672760,346.659485 326.666962,345.014404 
	C327.170776,344.675720 327.674561,344.337006 328.576691,343.976959 
	C328.576691,343.976959 328.946228,343.826721 329.886597,343.967896 
	C342.913727,343.921570 355.940887,343.875244 369.686005,344.184845 
	C373.420349,344.184845 377.154724,344.184845 381.016510,344.184845 
	C381.016510,337.340424 380.304565,331.251984 381.260651,325.437836 
	C381.924866,321.398834 380.879120,320.926147 377.622833,320.976196 
	C373.095367,321.045807 368.565369,320.949677 363.622070,320.157471 
	C352.432770,320.157990 341.243500,320.158508 329.221069,320.311188 
M451.805908,279.931030 
	C460.395142,277.622650 469.165710,275.831909 477.536560,272.900055 
	C495.967285,266.444763 511.398529,255.292908 522.666687,239.415970 
	C534.971008,222.079117 540.157837,202.790527 536.148865,181.197128 
	C532.306519,160.500778 521.320312,144.406082 505.634949,131.445358 
	C492.364288,120.479858 476.945190,113.944092 459.727325,110.567360 
	C443.354919,107.356438 427.420593,107.607651 411.521271,111.384544 
	C393.800201,115.594185 378.141632,123.955124 365.021118,136.907883 
	C347.232330,154.469193 337.461945,174.879822 339.895111,200.554062 
	C341.430023,216.750259 347.672791,230.634369 357.654846,243.081055 
	C361.419922,247.775726 361.677460,250.473221 357.586365,254.878296 
	C354.528442,258.170807 351.192352,261.203583 348.088196,264.455200 
	C346.957672,265.639404 346.139496,267.121857 345.178833,268.468262 
	C346.911163,269.610504 348.606598,271.671844 350.381897,271.743103 
	C360.475555,272.148224 370.778656,273.164368 380.317383,268.784973 
	C384.400970,266.910126 387.479279,267.617401 391.208221,269.555634 
	C402.103943,275.219025 413.650848,278.976776 426.931183,280.009857 
	C434.950073,279.962097 442.968994,279.914337 451.805908,279.931030 
M558.126587,453.827423 
	C558.069702,456.137207 557.551575,458.566101 558.107178,460.717743 
	C558.524963,462.335876 560.109070,464.514252 561.543152,464.845673 
	C565.702271,465.806763 568.776062,463.492981 568.935974,460.069977 
	C569.170227,455.055420 567.271423,453.054260 562.209717,453.025604 
	C561.056396,453.019043 559.902527,453.110443 558.126587,453.827423 
M358.282196,461.778320 
	C359.584290,462.743317 360.766113,463.977966 362.211151,464.622437 
	C366.463226,466.518951 369.050720,463.418213 370.574554,460.541962 
	C372.070587,457.718079 371.442169,454.692902 367.519897,453.082458 
	C361.273499,450.517792 357.919525,453.152130 358.282196,461.778320 
M512.007935,454.546814 
	C511.758514,455.140625 511.579956,455.777710 511.248169,456.321259 
	C509.088867,459.858673 510.925903,462.284393 513.784973,463.887085 
	C516.927979,465.648926 520.522644,466.195984 522.282104,462.078949 
	C523.132019,460.090210 523.557678,456.881134 522.520691,455.332764 
	C520.056702,451.653748 516.350830,450.707825 512.007935,454.546814 
M380.371124,457.890930 
	C378.261688,456.072906 376.152283,454.254883 374.042847,452.436859 
	C373.508209,452.774445 372.973572,453.112030 372.438934,453.449615 
	C375.610657,456.743988 371.130646,461.668427 375.677185,465.356659 
	C376.560059,463.506561 377.150787,462.268616 377.362915,461.824127 
	C379.614471,461.413422 381.184418,461.127014 382.612518,460.866516 
	C382.948517,461.919006 383.409302,463.362335 383.870087,464.805664 
	C384.337952,464.750183 384.805817,464.694702 385.273682,464.639191 
	C385.273682,460.860260 385.273682,457.081329 385.273682,452.172485 
	C383.486298,454.303955 382.196564,455.842010 380.371124,457.890930 
M261.316223,465.015411 
	C264.603790,464.438171 266.833344,462.513336 266.864685,459.197052 
	C266.882629,457.294495 266.161530,454.431519 264.833740,453.695404 
	C262.890381,452.618073 259.384796,452.038086 257.856628,453.112244 
	C255.888550,454.495544 253.904251,458.015564 254.362000,460.073730 
	C254.806122,462.070648 258.331268,463.382355 261.316223,465.015411 
M586.600159,459.917358 
	C586.600159,461.497772 586.600159,463.078156 586.600159,465.664154 
	C588.517761,463.934875 589.528625,463.023285 590.486389,462.159576 
	C591.738586,463.235504 592.664368,464.030975 593.714294,464.933136 
	C596.990967,454.601166 597.482666,451.839081 585.829285,453.559723 
	C586.206970,455.449097 586.580261,457.316589 586.600159,459.917358 
M581.970642,454.518250 
	C579.170471,452.266937 576.264709,450.275085 572.974365,453.578308 
	C570.332092,456.231049 569.803528,459.316132 572.050720,462.514740 
	C574.056702,465.369965 577.211670,466.133575 579.819641,464.416931 
	C582.942322,462.361572 585.650024,459.320618 581.970642,454.518250 
M390.016327,458.511353 
	C390.016327,460.535614 390.016327,462.559875 390.016327,463.957123 
	C392.911621,462.604401 395.378387,461.451904 397.903992,460.271912 
	C398.861664,462.092407 399.574493,463.447540 400.287354,464.802673 
	C400.646271,464.745331 401.005157,464.687988 401.364075,464.630615 
	C401.364075,460.791077 401.364075,456.951538 401.364075,453.111969 
	C400.703918,452.446014 400.043732,451.780060 399.383575,451.114105 
	C398.219910,453.378021 397.056274,455.641937 395.802246,458.081665 
	C394.703949,457.054657 393.862427,456.324158 393.088287,455.528107 
	C392.302429,454.720001 391.583008,453.847260 390.011322,452.074127 
	C390.011322,454.775421 390.011322,456.210938 390.016327,458.511353 
M289.492371,456.990204 
	C288.010468,455.556519 286.528595,454.122803 284.820374,452.470123 
	C282.067017,460.520386 282.441559,463.219208 286.028809,464.229797 
	C286.480499,462.921997 286.929840,461.621002 287.379211,460.320007 
	C288.526428,461.047455 289.713470,461.720306 290.808655,462.519073 
	C291.730469,463.191406 292.545410,464.010223 293.407684,464.764160 
	C292.901520,460.321747 295.797791,455.871887 292.229706,451.478210 
	C291.336029,453.915100 290.691895,455.671570 289.492371,456.990204 
M425.439667,462.945221 
	C426.040436,463.479492 426.641235,464.013733 427.335815,464.631439 
	C429.196228,457.138367 428.580444,453.976868 424.982452,453.385132 
	C425.248352,454.918304 425.496094,456.346954 425.924927,458.819580 
	C423.019653,456.337128 420.916992,454.540466 417.785858,451.865021 
	C418.024536,457.181732 418.190979,460.889618 418.357422,464.597534 
	C418.931854,464.622742 419.506256,464.647949 420.080688,464.673157 
	C420.579803,463.140381 421.078918,461.607574 421.709839,459.669952 
	C422.994995,460.759399 423.970215,461.586151 425.439667,462.945221 
M275.325226,456.848267 
	C274.525879,455.828430 273.916931,454.389771 272.870270,453.913971 
	C271.939667,453.490967 269.467865,454.219788 269.473999,454.296387 
	C269.751038,457.759796 270.226562,461.207367 270.678741,464.656769 
	C271.153351,464.653992 271.627960,464.651215 272.102570,464.648438 
	C272.614410,463.120148 273.126251,461.591888 273.755951,459.711670 
	C275.742401,461.362549 277.424072,462.760101 279.294220,464.314301 
	C281.019196,456.758942 280.470947,453.972504 277.828247,453.370300 
	C277.143677,454.744904 276.510376,456.016571 275.325226,456.848267 
M303.434906,461.980560 
	C302.470184,461.980560 301.505463,461.980560 300.709106,461.980560 
	C302.620361,459.263336 304.493347,456.600525 306.774628,453.357208 
	C302.894135,453.357208 300.061279,453.357208 297.003265,453.357208 
	C297.003265,455.992706 296.971741,458.288177 297.010406,460.582520 
	C297.074188,464.366272 301.207214,466.753693 304.543030,464.812103 
	C304.855133,464.630493 304.321381,462.995575 303.434906,461.980560 
M403.946350,460.000763 
	C406.013092,461.653656 407.938965,464.261749 410.200226,464.595154 
	C411.521240,464.789886 414.199127,461.566223 414.747986,459.480804 
	C415.233826,457.634766 416.756805,454.020020 412.875153,452.862579 
	C410.372162,455.671082 414.628784,461.201538 408.516571,462.095642 
	C407.273712,453.125366 407.273712,453.125366 403.953674,453.719910 
	C403.953674,455.507874 403.953674,457.317932 403.946350,460.000763 
M625.272400,460.306458 
	C629.439758,459.492371 625.910156,454.247681 629.435730,453.173889 
	C627.134216,453.173889 624.832703,453.173889 622.158508,453.173889 
	C622.717773,456.978577 617.794617,460.754822 621.850220,463.899780 
	C623.920898,465.505463 627.753052,464.839539 630.789062,465.200348 
	C630.910522,464.611481 631.031982,464.022614 631.153442,463.433746 
	C629.147400,462.634949 627.141296,461.836151 625.272400,460.306458 
M481.909821,463.599884 
	C480.326141,462.723511 478.742493,461.847107 477.576080,461.201630 
	C479.033508,458.769806 480.487122,456.344360 482.442871,453.081116 
	C479.350586,453.081116 474.825043,452.753510 474.765167,453.132172 
	C474.212219,456.628571 474.024048,460.334351 474.759888,463.757874 
	C474.911407,464.462677 479.348755,464.246307 481.909821,463.599884 
M317.910828,461.729401 
	C317.369080,461.573486 316.831573,461.400482 316.284760,461.264984 
	C314.759277,460.886963 312.862640,460.936127 311.828949,460.013794 
	C311.118256,459.379700 311.602905,457.405945 311.553253,456.030945 
	C313.020111,456.001556 314.488007,455.995972 315.953339,455.931488 
	C316.567230,455.904449 317.175598,455.752472 317.786499,455.657257 
	C318.000275,455.180389 318.214020,454.703491 318.427795,454.226624 
	C316.859894,453.487854 314.680267,451.711945 313.840210,452.207397 
	C311.447693,453.618439 308.816742,455.639679 307.847565,458.050964 
	C307.307526,459.394592 309.488190,462.453217 311.161774,463.916656 
	C313.557404,466.011444 316.211426,465.523376 317.910828,461.729401 
M603.517395,463.066772 
	C605.061218,463.568481 606.605042,464.070190 609.164124,464.901855 
	C607.224487,460.077362 605.611023,456.064301 603.997620,452.051270 
	C603.466064,451.961029 602.934509,451.870758 602.402954,451.780518 
	C600.914917,455.844574 599.426880,459.908630 597.494324,465.186676 
	C600.278381,464.049774 601.520508,463.542542 603.517395,463.066772 
M355.915985,454.850677 
	C354.047729,452.522675 351.674286,450.670929 348.915100,452.778381 
	C346.783936,454.406128 343.588440,456.168243 345.423767,459.989227 
	C346.807129,462.869293 348.413422,465.693054 352.220856,464.913391 
	C353.427216,464.666382 354.369385,463.129150 355.432495,462.182404 
	C354.160980,461.234924 353.709869,461.403748 353.298126,461.335388 
	C351.864014,461.097229 350.276520,461.063538 349.086487,460.370087 
	C348.467377,460.009369 348.084747,457.756866 348.416504,457.522827 
	C349.508453,456.752350 350.954773,456.429047 352.305023,456.096741 
	C353.412109,455.824341 354.576324,455.784210 355.915985,454.850677 
M500.012878,453.441040 
	C497.197876,458.304413 497.273804,461.908051 500.614380,463.822693 
	C503.522369,465.489380 506.624542,466.233398 508.994110,461.750061 
	C505.724976,461.027405 500.294830,463.685394 500.523712,458.429626 
	C500.752441,453.176941 506.390381,457.162384 509.651611,455.032806 
	C506.905334,451.819000 504.092010,451.331390 500.012878,453.441040 
M460.883270,462.513092 
	C459.401093,459.330780 457.918884,456.148468 455.683624,451.349274 
	C453.307709,456.435242 451.561584,460.173065 450.250183,462.980286 
	C454.027649,463.718414 456.613770,464.312836 459.232880,464.654663 
	C459.714233,464.717499 460.329376,463.755066 460.883270,462.513092 
M545.997131,461.490204 
	C546.272156,462.527435 546.547180,463.564667 546.609985,463.801453 
	C549.868713,463.801453 552.487793,463.801453 556.277893,463.801453 
	C554.653137,460.237030 553.037476,456.692657 551.421814,453.148285 
	C549.802856,455.391724 548.181519,457.633514 546.567932,459.880768 
	C546.376282,460.147675 546.226562,460.444641 545.997131,461.490204 
M441.447388,456.189789 
	C443.550354,455.974426 445.653351,455.759064 447.756317,455.543732 
	C447.988983,455.156525 448.221649,454.769348 448.454315,454.382141 
	C446.906342,453.591949 445.128082,451.894318 443.862213,452.215576 
	C441.749329,452.751801 438.853760,454.237457 438.326141,455.951050 
	C437.686798,458.027313 438.470367,461.320648 439.891235,463.069122 
	C442.004883,465.669952 445.188019,465.912323 448.447388,462.560791 
	C445.686279,460.887543 439.158569,463.557770 441.447388,456.189789 
M245.110672,456.597443 
	C247.367462,456.167053 249.624237,455.736664 251.881027,455.306274 
	C252.039261,454.846710 252.197479,454.387177 252.355713,453.927643 
	C250.409500,453.281647 248.108398,451.676849 246.606964,452.232544 
	C244.733414,452.925995 242.839981,455.169006 242.166931,457.153870 
	C240.937576,460.779297 242.770737,463.753052 246.430649,464.672516 
	C248.008469,465.068909 250.000290,463.817261 251.804047,463.314301 
	C251.657227,462.685669 251.510422,462.057037 251.363617,461.428406 
	C250.445618,461.518036 249.529419,461.638275 248.609329,461.691772 
	C245.461029,461.874878 243.422256,461.102264 245.110672,456.597443 
M465.021301,462.182404 
	C465.848480,463.093201 466.675659,464.004028 468.566376,466.085907 
	C468.771820,462.445679 468.549042,460.297424 469.103119,458.372772 
	C469.607635,456.620270 470.955505,455.110596 471.945160,453.471436 
	C468.461395,453.471436 465.310883,453.471436 462.160339,453.471436 
	C462.084656,453.779846 462.008972,454.088257 461.933289,454.396667 
	C463.315369,455.245728 464.697449,456.094757 466.007233,456.899384 
	C465.642731,458.555389 465.331818,459.967865 465.021301,462.182404 
M533.787598,464.507874 
	C532.609985,463.748962 531.432434,462.990051 529.993225,462.062561 
	C529.993225,459.649689 530.106567,456.996613 529.917480,454.365265 
	C529.867004,453.662781 528.859436,452.462616 528.347717,452.491547 
	C527.566284,452.535645 526.470886,453.285553 526.138306,454.020660 
	C523.463745,459.932800 526.744385,465.036499 533.787598,464.507874 
M619.859192,453.641815 
	C616.846497,449.858032 613.560547,454.189148 610.449524,453.324982 
	C610.660156,454.213715 610.791748,455.843292 611.093750,455.875580 
	C613.843018,456.168884 613.314819,457.687683 613.067139,459.631714 
	C612.853760,461.306305 613.510864,463.091797 613.783081,464.828247 
	C614.286316,464.807281 614.789490,464.786316 615.292725,464.765350 
	C615.529846,463.080658 615.400513,461.222687 616.094910,459.754181 
	C617.007202,457.824799 618.568115,456.202087 619.859192,453.641815 
M329.716431,453.359863 
	C326.687347,453.224457 323.658264,453.089050 321.874573,453.009308 
	C322.265747,455.838989 322.357971,458.454742 323.069702,460.889435 
	C323.466797,462.247772 324.893677,463.305023 326.199341,464.922760 
	C328.180359,460.610046 324.219025,455.755463 329.716431,453.359863 
M541.474915,461.959961 
	C540.320007,458.988586 539.165039,456.017212 537.765381,452.416138 
	C534.289062,467.696106 536.677490,465.383636 545.950867,464.207886 
	C544.222473,463.159729 543.265442,462.579346 541.474915,461.959961 
M432.009552,454.829651 
	C432.143768,458.111237 432.277985,461.392822 432.412201,464.674408 
	C433.275940,464.648346 434.139679,464.622284 435.003418,464.596222 
	C435.003418,461.131439 435.034943,457.665253 434.881989,454.207245 
	C434.876190,454.076294 433.084930,454.024323 432.009552,454.829651 
z"/>
<path fill="#44A4C2" opacity="1.000000" stroke="none" 
	d="
M426.000824,279.879822 
	C413.650848,278.976776 402.103943,275.219025 391.208221,269.555634 
	C387.479279,267.617401 384.400970,266.910126 380.317383,268.784973 
	C370.778656,273.164368 360.475555,272.148224 350.381897,271.743103 
	C348.606598,271.671844 346.911163,269.610504 345.178833,268.468262 
	C346.139496,267.121857 346.957672,265.639404 348.088196,264.455200 
	C351.192352,261.203583 354.528442,258.170807 357.586365,254.878296 
	C361.677460,250.473221 361.419922,247.775726 357.654846,243.081055 
	C347.672791,230.634369 341.430023,216.750259 339.895111,200.554062 
	C337.461945,174.879822 347.232330,154.469193 365.021118,136.907883 
	C378.141632,123.955124 393.800201,115.594185 411.521271,111.384544 
	C427.420593,107.607651 443.354919,107.356438 459.727325,110.567360 
	C476.945190,113.944092 492.364288,120.479858 505.634949,131.445358 
	C521.320312,144.406082 532.306519,160.500778 536.148865,181.197128 
	C540.157837,202.790527 534.971008,222.079117 522.666687,239.415970 
	C511.398529,255.292908 495.967285,266.444763 477.536560,272.900055 
	C469.165710,275.831909 460.395142,277.622650 451.043671,279.686768 
	C442.187897,279.588287 434.094360,279.734070 426.000824,279.879822 
M431.684845,260.563141 
	C436.800293,260.438690 441.915741,260.314240 447.435852,260.055023 
	C447.435852,260.055023 447.859558,260.006226 448.538879,260.021851 
	C449.375305,259.729492 450.211731,259.437134 451.866974,259.002838 
	C456.122559,258.032471 460.442688,257.281555 464.622009,256.051941 
	C479.145844,251.778854 491.699951,244.374634 501.712463,232.779221 
	C514.245361,218.264954 519.686035,201.612442 515.755066,182.802811 
	C511.535492,162.612213 498.863678,148.383514 480.816711,139.143127 
	C473.258514,135.273178 464.939758,132.888779 456.303009,129.447540 
	C454.482422,129.301590 452.661865,129.155624 450.405304,128.974487 
	C450.405304,128.974487 449.991943,128.831406 449.266632,128.445312 
	C442.177155,128.577850 435.087646,128.710388 427.585602,128.985229 
	C427.585602,128.985229 427.151611,129.031006 426.378967,129.008301 
	C424.918396,129.292007 423.457825,129.575714 421.208618,129.999466 
	C420.477112,130.339401 419.778107,130.841904 419.009369,130.995468 
	C400.048462,134.783188 383.993927,143.502808 372.358734,159.230423 
	C361.955688,173.292450 357.086273,188.634842 361.622009,206.373352 
	C365.224854,220.463364 372.231171,231.904861 383.493591,241.183273 
	C396.255249,251.696823 410.742615,257.418030 427.555176,259.534943 
	C428.421661,259.686127 429.288116,259.837311 430.568146,260.026886 
	C430.568146,260.026886 430.963165,260.155121 431.684845,260.563141 
z"/>
<path fill="#5AD4D2" opacity="1.000000" stroke="none" 
	d="
M288.831299,407.163147 
	C288.876617,412.807404 288.921936,418.451630 288.572418,424.641907 
	C287.173309,426.723389 286.169067,428.258881 284.987640,430.065277 
	C276.756042,430.065277 268.321198,430.065277 259.886322,430.065277 
	C259.886322,430.065277 259.956238,430.054382 259.914673,429.781952 
	C259.547760,428.998779 259.222443,428.488068 258.897125,427.977325 
	C258.897125,427.977325 259.015625,427.973694 258.825745,427.821838 
	C258.321228,427.456085 258.006592,427.242188 257.691925,427.028320 
	C244.892624,406.811554 232.093323,386.594818 219.294022,366.378052 
	C218.819199,366.402618 218.344376,366.427216 217.869568,366.451782 
	C217.575104,370.054962 217.032822,373.659607 217.054413,377.260895 
	C217.076950,381.019470 217.921082,384.776367 217.899750,388.531128 
	C217.873627,393.122070 217.014526,397.713348 217.064056,402.298584 
	C217.149628,410.220795 217.512482,418.148285 218.048737,426.053925 
	C218.327545,430.164032 216.664322,431.270844 212.825714,431.078369 
	C207.511749,430.811890 202.165726,430.832245 196.849731,431.079712 
	C193.193665,431.249878 191.730942,430.088043 191.946930,426.283905 
	C192.452789,417.375305 192.908676,408.451904 192.962738,399.531952 
	C193.099976,376.891174 193.044464,354.248840 192.961029,331.607544 
	C192.948624,328.238251 192.367661,324.871063 192.004944,321.028320 
	C201.209305,321.028320 210.031494,320.948608 218.848358,321.128937 
	C219.952255,321.151520 221.393478,322.311066 222.061142,323.343079 
	C229.937149,335.517242 237.773605,347.718750 245.455521,360.016083 
	C250.064529,367.394287 254.338730,374.981171 258.888275,382.397614 
	C259.483582,383.368073 260.823761,383.881500 262.318939,384.120178 
	C263.211273,381.596741 263.932587,379.561676 263.944672,377.522400 
	C264.056030,358.741211 264.044678,339.959290 264.069031,321.177582 
	C270.227539,321.121826 276.385925,321.037323 282.544556,321.018341 
	C288.956848,320.998596 288.998535,321.026215 289.003693,327.738342 
	C289.016296,344.136810 288.986633,360.535309 288.591949,377.696960 
	C288.085663,384.847443 287.836121,391.235779 287.890198,397.621521 
	C287.917145,400.804504 288.499939,403.982758 288.831299,407.163147 
z"/>
<path fill="#59D4D2" opacity="1.000000" stroke="none" 
	d="
M364.036438,320.924500 
	C368.565369,320.949677 373.095367,321.045807 377.622833,320.976196 
	C380.879120,320.926147 381.924866,321.398834 381.260651,325.437836 
	C380.304565,331.251984 381.016510,337.340424 381.016510,344.184845 
	C377.154724,344.184845 373.420349,344.184845 368.968079,343.810364 
	C358.555634,343.283875 348.861328,343.046356 339.166534,343.025970 
	C335.760345,343.018829 332.353027,343.544403 328.946228,343.826721 
	C328.946228,343.826721 328.576691,343.976959 328.062042,344.031128 
	C327.035614,344.431610 326.523865,344.777954 326.012115,345.124329 
	C325.672760,346.659485 324.978668,348.213989 325.060944,349.726196 
	C325.302307,354.161469 325.852448,358.579956 326.998779,363.304718 
	C331.195679,363.727844 334.678040,364.004822 338.154724,363.945953 
	C348.743439,363.766602 359.329987,363.457733 369.917358,363.199310 
	C372.131927,363.594879 374.346497,363.990448 376.788696,364.426666 
	C376.788696,371.362366 376.788696,378.426819 376.788696,386.443481 
	C359.834991,386.443481 343.070862,386.443481 326.259399,386.443481 
	C326.259399,393.830811 326.259399,400.267456 326.976440,407.179474 
	C337.505066,407.768494 347.316650,407.882111 357.128235,407.995728 
	C364.967773,407.995728 372.807281,407.995728 381.018402,407.995728 
	C381.351868,414.337708 381.658630,420.171509 381.570129,426.603302 
	C378.821930,428.142334 376.476013,429.880096 374.115082,429.900726 
	C351.497498,430.098511 328.877075,429.941986 306.258362,430.059784 
	C302.451141,430.079651 300.945770,428.960846 300.961517,424.962982 
	C301.097931,390.369537 301.076752,355.775452 301.102478,321.181580 
	C308.894745,321.123474 316.687592,321.101349 324.478790,320.977356 
	C326.062683,320.952148 327.640472,320.543213 329.967407,320.480438 
	C341.821289,320.741272 352.928864,320.832886 364.036438,320.924500 
z"/>
<path fill="#5BD4D2" opacity="1.000000" stroke="none" 
	d="
M627.106323,358.988190 
	C639.004639,362.317139 650.872009,365.762665 662.810730,368.939789 
	C673.205811,371.706085 685.418274,384.454163 684.752441,394.183990 
	C684.271729,401.208984 684.775818,408.714325 680.116699,415.278107 
	C675.328674,422.023499 668.940613,426.073334 661.608276,428.948761 
	C646.123291,435.021393 630.532715,434.286407 615.475891,427.854980 
	C605.342163,423.526428 596.189758,412.022461 595.885071,400.331909 
	C595.776489,396.165924 598.516296,395.453522 600.991699,395.194336 
	C605.751648,394.695953 610.642212,395.429016 615.398010,394.911072 
	C620.187866,394.389343 621.605469,397.015625 621.923584,400.735931 
	C622.322693,405.404053 624.805054,407.576019 628.936951,409.610657 
	C636.502258,413.335876 643.491760,413.902191 651.199707,410.109985 
	C655.163086,408.160034 658.784973,405.430206 658.597107,401.621460 
	C658.450256,398.644012 655.325500,394.473450 652.480103,393.238953 
	C645.898315,390.383301 638.678650,389.002472 631.725769,386.995514 
	C623.350891,384.578094 615.041260,382.398712 607.902344,376.667175 
	C601.036987,371.155273 597.882202,364.172058 597.066589,355.952515 
	C595.847473,343.666290 600.249207,333.213562 610.430115,326.433441 
	C615.848938,322.824707 622.715027,320.581604 629.213074,319.588104 
	C639.243713,318.054474 649.719910,317.813599 659.227539,322.172455 
	C671.165405,327.645447 679.157837,336.712250 680.802979,350.894623 
	C680.361694,352.673523 680.095215,353.838867 679.828735,355.004181 
	C679.828674,355.004181 679.485535,355.017761 678.993774,355.020691 
	C678.288513,355.032593 678.074890,355.041565 677.861328,355.050568 
	C677.861328,355.050568 677.396484,354.991547 676.817200,354.720398 
	C674.110474,354.305939 671.981812,354.178528 669.855835,354.016083 
	C665.300232,353.667999 660.745972,353.301788 656.191162,352.942993 
	C653.907593,346.525848 650.579224,341.016174 642.953918,340.533783 
	C638.620239,340.259644 634.233826,340.819855 629.274170,341.123993 
	C628.414246,341.453125 628.151306,341.662598 627.888306,341.872009 
	C627.888306,341.872009 627.541870,341.994415 627.130005,342.108459 
	C626.450806,342.422791 626.183411,342.623108 625.915955,342.823425 
	C625.915955,342.823395 625.529358,342.962036 625.112671,343.137878 
	C624.461487,343.574005 624.227051,343.834290 623.992615,344.094543 
	C623.992615,344.094543 624.004517,344.011261 623.675659,344.106079 
	C619.690308,347.316803 620.148682,350.648773 622.827087,354.097351 
	C622.827087,354.097351 622.980408,354.461151 623.144287,354.877014 
	C623.567749,355.532196 623.827332,355.771515 624.086975,356.010834 
	C624.086975,356.010834 623.989746,356.004791 624.137085,356.171173 
	C624.547668,356.557922 624.810913,356.778290 625.074097,356.998657 
	C625.074097,356.998657 625.000610,356.997375 625.139893,357.177185 
	C625.543884,357.571198 625.808533,357.785461 626.073181,357.999725 
	C626.073181,357.999725 625.998657,358.003754 626.152588,358.172180 
	C626.573181,358.556488 626.839722,358.772339 627.106323,358.988190 
z"/>
<path fill="#5AD4D2" opacity="1.000000" stroke="none" 
	d="
M519.834961,371.079224 
	C519.893921,375.405151 520.297791,379.760712 519.929443,384.049927 
	C519.404480,390.161163 520.813110,395.871124 523.649536,400.985229 
	C526.880615,406.810944 533.213867,408.910400 539.205139,408.797577 
	C553.591370,408.526764 561.582214,400.899689 561.909241,385.909912 
	C562.341309,366.102936 562.005127,346.279175 561.999329,326.462646 
	C561.998840,324.829010 561.999268,323.195374 561.999268,321.029327 
	C570.097168,321.029327 577.865967,320.967194 585.633057,321.056519 
	C589.313110,321.098846 588.957153,324.058167 588.971985,326.421112 
	C589.039429,337.244781 589.127808,348.070984 588.966675,358.892700 
	C588.781860,371.309692 588.912354,383.774231 587.800659,396.118591 
	C587.126648,403.603180 583.929993,410.706299 578.863708,416.643219 
	C572.918762,423.609589 565.771362,428.684845 555.993652,430.606079 
	C546.462769,430.641449 537.649963,430.833191 528.837219,431.024902 
	C514.226379,430.246826 499.702484,418.721344 494.944641,402.522797 
	C494.675018,401.604889 494.349030,400.703522 494.370789,399.277466 
	C494.464447,395.860168 494.042267,392.960052 494.039673,390.059540 
	C494.019135,367.098267 494.078491,344.136932 494.113312,321.175598 
	C501.694336,320.828156 509.273987,320.372620 516.858215,320.275635 
	C517.763672,320.264038 519.162109,322.070618 519.504822,323.270660 
	C520.036438,325.132324 519.856628,327.197205 519.688721,329.916199 
	C519.246216,342.372314 519.053589,354.087891 518.983582,365.804199 
	C518.973083,367.560791 519.536804,369.320801 519.834961,371.079224 
z"/>
<path fill="#5BD4D2" opacity="1.000000" stroke="none" 
	d="
M415.008759,321.036163 
	C417.617523,324.464386 420.484558,327.729065 422.780396,331.355408 
	C427.339417,338.556580 431.583710,345.957001 436.461121,354.116699 
	C438.602356,351.505707 440.300293,349.844238 441.513611,347.882996 
	C446.087524,340.489594 450.681885,333.098267 454.923096,325.513000 
	C458.372223,319.344299 464.301300,320.398071 469.594879,320.133698 
	C474.347992,319.896362 479.155243,320.661682 483.932343,321.059845 
	C484.828705,321.134552 485.695465,321.563812 486.906311,321.929169 
	C480.228271,331.546265 473.658844,340.787476 467.331818,350.191742 
	C462.719971,357.046631 458.462555,364.139069 453.975403,371.079224 
	C452.226196,373.784607 452.188660,375.829773 454.182953,378.840271 
	C463.353699,392.683899 472.058472,406.835632 480.989868,420.838928 
	C482.412842,423.070038 484.138977,425.107819 485.719666,427.922150 
	C484.055603,429.073059 482.403687,429.906006 480.736786,429.937134 
	C473.110870,430.079773 465.480743,429.997742 457.852142,429.996399 
	C457.515045,430.009125 457.260681,429.870300 456.951477,429.108673 
	C456.594269,428.362518 456.374634,428.087585 456.154968,427.812683 
	C449.447327,417.216370 442.739685,406.620056 435.515106,395.207123 
	C427.973755,407.201202 420.889008,418.469086 413.006744,429.872040 
	C405.455872,430.005249 398.697632,430.141205 391.952545,429.903992 
	C390.282471,429.845245 388.654968,428.575897 387.007874,427.863037 
	C387.007874,427.863037 387.026489,427.461945 387.268982,427.099976 
	C387.705505,426.480591 387.865936,426.203674 387.992706,425.907257 
	C387.992706,425.907257 388.004181,426.000244 388.158112,425.846252 
	C388.530518,425.431824 388.749023,425.171417 388.967529,424.911011 
	C395.247650,415.172760 401.484436,405.406189 407.825195,395.707581 
	C411.274506,390.431732 415.201904,385.441467 418.290192,379.970459 
	C419.436646,377.939484 419.862671,374.300110 418.798065,372.429504 
	C414.039734,364.068939 408.644196,356.069580 403.441406,347.963776 
	C397.727753,339.061951 391.973145,330.186401 387.033630,321.091431 
	C396.890198,320.934326 405.949463,320.985260 415.008759,321.036163 
z"/>
<path fill="#7CD0D3" opacity="1.000000" stroke="none" 
	d="
M300.669922,321.277100 
	C301.076752,355.775452 301.097931,390.369537 300.961517,424.962982 
	C300.945770,428.960846 302.451141,430.079651 306.258362,430.059784 
	C328.877075,429.941986 351.497498,430.098511 374.115082,429.900726 
	C376.476013,429.880096 378.821930,428.142334 381.501373,427.055481 
	C382.676086,431.110748 379.918579,431.027466 377.059845,431.024719 
	C351.593872,431.000031 326.127869,431.010345 300.279938,431.010345 
	C300.192596,429.731140 300.032959,428.477814 300.032257,427.224457 
	C300.012665,393.097748 300.007019,358.971069 300.013153,324.844360 
	C300.013336,323.687134 300.159332,322.529877 300.669922,321.277100 
z"/>
<path fill="#5EA7BC" opacity="1.000000" stroke="none" 
	d="
M558.437744,453.492096 
	C559.902527,453.110443 561.056396,453.019043 562.209717,453.025604 
	C567.271423,453.054260 569.170227,455.055420 568.935974,460.069977 
	C568.776062,463.492981 565.702271,465.806763 561.543152,464.845673 
	C560.109070,464.514252 558.524963,462.335876 558.107178,460.717743 
	C557.551575,458.566101 558.069702,456.137207 558.437744,453.492096 
z"/>
<path fill="#5EA7BC" opacity="1.000000" stroke="none" 
	d="
M358.164001,461.385620 
	C357.919525,453.152130 361.273499,450.517792 367.519897,453.082458 
	C371.442169,454.692902 372.070587,457.718079 370.574554,460.541962 
	C369.050720,463.418213 366.463226,466.518951 362.211151,464.622437 
	C360.766113,463.977966 359.584290,462.743317 358.164001,461.385620 
M362.091156,458.551270 
	C362.905823,459.688354 363.720520,460.825409 364.535217,461.962463 
	C365.330139,461.123199 366.872223,460.168488 366.764099,459.468689 
	C366.540497,458.021179 365.438599,456.709290 364.697968,455.341675 
	C363.827118,456.142365 362.956268,456.943085 362.091156,458.551270 
z"/>
<path fill="#5EA7BC" opacity="1.000000" stroke="none" 
	d="
M512.251282,454.246643 
	C516.350830,450.707825 520.056702,451.653748 522.520691,455.332764 
	C523.557678,456.881134 523.132019,460.090210 522.282104,462.078949 
	C520.522644,466.195984 516.927979,465.648926 513.784973,463.887085 
	C510.925903,462.284393 509.088867,459.858673 511.248169,456.321259 
	C511.579956,455.777710 511.758514,455.140625 512.251282,454.246643 
M519.980713,459.305206 
	C519.234192,457.890717 518.487610,456.476196 517.741089,455.061707 
	C516.804016,455.798492 515.225769,456.427979 515.080261,457.297302 
	C514.862427,458.598267 515.651917,460.067871 516.012939,461.465698 
	C517.323181,461.011200 518.633484,460.556702 519.980713,459.305206 
z"/>
<path fill="#5EA7BC" opacity="1.000000" stroke="none" 
	d="
M380.638977,457.635498 
	C382.196564,455.842010 383.486298,454.303955 385.273682,452.172485 
	C385.273682,457.081329 385.273682,460.860260 385.273682,464.639191 
	C384.805817,464.694702 384.337952,464.750183 383.870087,464.805664 
	C383.409302,463.362335 382.948517,461.919006 382.612518,460.866516 
	C381.184418,461.127014 379.614471,461.413422 377.362915,461.824127 
	C377.150787,462.268616 376.560059,463.506561 375.677185,465.356659 
	C371.130646,461.668427 375.610657,456.743988 372.438934,453.449615 
	C372.973572,453.112030 373.508209,452.774445 374.042847,452.436859 
	C376.152283,454.254883 378.261688,456.072906 380.638977,457.635498 
z"/>
<path fill="#5EA7BC" opacity="1.000000" stroke="none" 
	d="
M260.909790,465.005188 
	C258.331268,463.382355 254.806122,462.070648 254.362000,460.073730 
	C253.904251,458.015564 255.888550,454.495544 257.856628,453.112244 
	C259.384796,452.038086 262.890381,452.618073 264.833740,453.695404 
	C266.161530,454.431519 266.882629,457.294495 266.864685,459.197052 
	C266.833344,462.513336 264.603790,464.438171 260.909790,465.005188 
M258.916870,455.635742 
	C259.243011,457.734863 259.569153,459.833954 259.895294,461.933075 
	C261.300171,461.161224 262.705048,460.389374 264.109924,459.617554 
	C262.574432,458.113129 261.038910,456.608704 258.916870,455.635742 
z"/>
<path fill="#5EA7BC" opacity="1.000000" stroke="none" 
	d="
M586.776855,459.550720 
	C586.580261,457.316589 586.206970,455.449097 585.829285,453.559723 
	C597.482666,451.839081 596.990967,454.601166 593.714294,464.933136 
	C592.664368,464.030975 591.738586,463.235504 590.486389,462.159576 
	C589.528625,463.023285 588.517761,463.934875 586.600159,465.664154 
	C586.600159,463.078156 586.600159,461.497772 586.776855,459.550720 
z"/>
<path fill="#5EA7BC" opacity="1.000000" stroke="none" 
	d="
M582.251831,454.785156 
	C585.650024,459.320618 582.942322,462.361572 579.819641,464.416931 
	C577.211670,466.133575 574.056702,465.369965 572.050720,462.514740 
	C569.803528,459.316132 570.332092,456.231049 572.974365,453.578308 
	C576.264709,450.275085 579.170471,452.266937 582.251831,454.785156 
M574.075867,460.142914 
	C575.717102,460.576721 577.358337,461.010559 578.999573,461.444397 
	C579.343262,460.075470 580.207642,458.556244 579.869324,457.384216 
	C579.588562,456.411713 577.891479,455.848022 576.821838,455.103241 
	C575.888245,456.510986 574.954651,457.918762 574.075867,460.142914 
z"/>
<path fill="#5EA7BC" opacity="1.000000" stroke="none" 
	d="
M390.013824,458.078888 
	C390.011322,456.210938 390.011322,454.775421 390.011322,452.074127 
	C391.583008,453.847260 392.302429,454.720001 393.088287,455.528107 
	C393.862427,456.324158 394.703949,457.054657 395.802246,458.081665 
	C397.056274,455.641937 398.219910,453.378021 399.383575,451.114105 
	C400.043732,451.780060 400.703918,452.446014 401.364075,453.111969 
	C401.364075,456.951538 401.364075,460.791077 401.364075,464.630615 
	C401.005157,464.687988 400.646271,464.745331 400.287354,464.802673 
	C399.574493,463.447540 398.861664,462.092407 397.903992,460.271912 
	C395.378387,461.451904 392.911621,462.604401 390.016327,463.957123 
	C390.016327,462.559875 390.016327,460.535614 390.013824,458.078888 
z"/>
<path fill="#5EA7BC" opacity="1.000000" stroke="none" 
	d="
M289.770081,457.209137 
	C290.691895,455.671570 291.336029,453.915100 292.229706,451.478210 
	C295.797791,455.871887 292.901520,460.321747 293.407684,464.764160 
	C292.545410,464.010223 291.730469,463.191406 290.808655,462.519073 
	C289.713470,461.720306 288.526428,461.047455 287.379211,460.320007 
	C286.929840,461.621002 286.480499,462.921997 286.028809,464.229797 
	C282.441559,463.219208 282.067017,460.520386 284.820374,452.470123 
	C286.528595,454.122803 288.010468,455.556519 289.770081,457.209137 
z"/>
<path fill="#5EA7BC" opacity="1.000000" stroke="none" 
	d="
M425.192566,462.679077 
	C423.970215,461.586151 422.994995,460.759399 421.709839,459.669952 
	C421.078918,461.607574 420.579803,463.140381 420.080688,464.673157 
	C419.506256,464.647949 418.931854,464.622742 418.357422,464.597534 
	C418.190979,460.889618 418.024536,457.181732 417.785858,451.865021 
	C420.916992,454.540466 423.019653,456.337128 425.924927,458.819580 
	C425.496094,456.346954 425.248352,454.918304 424.982452,453.385132 
	C428.580444,453.976868 429.196228,457.138367 427.335815,464.631439 
	C426.641235,464.013733 426.040436,463.479492 425.192566,462.679077 
z"/>
<path fill="#5EA7BC" opacity="1.000000" stroke="none" 
	d="
M275.601135,457.068237 
	C276.510376,456.016571 277.143677,454.744904 277.828247,453.370300 
	C280.470947,453.972504 281.019196,456.758942 279.294220,464.314301 
	C277.424072,462.760101 275.742401,461.362549 273.755951,459.711670 
	C273.126251,461.591888 272.614410,463.120148 272.102570,464.648438 
	C271.627960,464.651215 271.153351,464.653992 270.678741,464.656769 
	C270.226562,461.207367 269.751038,457.759796 269.473999,454.296387 
	C269.467865,454.219788 271.939667,453.490967 272.870270,453.913971 
	C273.916931,454.389771 274.525879,455.828430 275.601135,457.068237 
z"/>
<path fill="#5EA7BC" opacity="1.000000" stroke="none" 
	d="
M303.807617,462.007996 
	C304.321381,462.995575 304.855133,464.630493 304.543030,464.812103 
	C301.207214,466.753693 297.074188,464.366272 297.010406,460.582520 
	C296.971741,458.288177 297.003265,455.992706 297.003265,453.357208 
	C300.061279,453.357208 302.894135,453.357208 306.774628,453.357208 
	C304.493347,456.600525 302.620361,459.263336 300.709106,461.980560 
	C301.505463,461.980560 302.470184,461.980560 303.807617,462.007996 
z"/>
<path fill="#5EA7BC" opacity="1.000000" stroke="none" 
	d="
M403.950012,459.564392 
	C403.953674,457.317932 403.953674,455.507874 403.953674,453.719910 
	C407.273712,453.125366 407.273712,453.125366 408.516571,462.095642 
	C414.628784,461.201538 410.372162,455.671082 412.875153,452.862579 
	C416.756805,454.020020 415.233826,457.634766 414.747986,459.480804 
	C414.199127,461.566223 411.521240,464.789886 410.200226,464.595154 
	C407.938965,464.261749 406.013092,461.653656 403.950012,459.564392 
z"/>
<path fill="#5EA7BC" opacity="1.000000" stroke="none" 
	d="
M625.203796,460.671906 
	C627.141296,461.836151 629.147400,462.634949 631.153442,463.433746 
	C631.031982,464.022614 630.910522,464.611481 630.789062,465.200348 
	C627.753052,464.839539 623.920898,465.505463 621.850220,463.899780 
	C617.794617,460.754822 622.717773,456.978577 622.158508,453.173889 
	C624.832703,453.173889 627.134216,453.173889 629.435730,453.173889 
	C625.910156,454.247681 629.439758,459.492371 625.203796,460.671906 
z"/>
<path fill="#7CD0D3" opacity="1.000000" stroke="none" 
	d="
M493.682739,321.279297 
	C494.078491,344.136932 494.019135,367.098267 494.039673,390.059540 
	C494.042267,392.960052 494.464447,395.860168 494.433777,398.895020 
	C493.779755,394.626038 493.052185,390.223053 493.044708,385.818909 
	C493.008331,364.340454 493.164307,342.861633 493.682739,321.279297 
z"/>
<path fill="#5EA7BC" opacity="1.000000" stroke="none" 
	d="
M481.860229,464.027222 
	C479.348755,464.246307 474.911407,464.462677 474.759888,463.757874 
	C474.024048,460.334351 474.212219,456.628571 474.765167,453.132172 
	C474.825043,452.753510 479.350586,453.081116 482.442871,453.081116 
	C480.487122,456.344360 479.033508,458.769806 477.576080,461.201630 
	C478.742493,461.847107 480.326141,462.723511 481.860229,464.027222 
z"/>
<path fill="#5EA7BC" opacity="1.000000" stroke="none" 
	d="
M317.938141,462.124939 
	C316.211426,465.523376 313.557404,466.011444 311.161774,463.916656 
	C309.488190,462.453217 307.307526,459.394592 307.847565,458.050964 
	C308.816742,455.639679 311.447693,453.618439 313.840210,452.207397 
	C314.680267,451.711945 316.859894,453.487854 318.427795,454.226624 
	C318.214020,454.703491 318.000275,455.180389 317.786499,455.657257 
	C317.175598,455.752472 316.567230,455.904449 315.953339,455.931488 
	C314.488007,455.995972 313.020111,456.001556 311.553284,456.030945 
	C311.602905,457.405945 311.118256,459.379700 311.828949,460.013794 
	C312.862640,460.936127 314.759277,460.886963 316.284760,461.264984 
	C316.831573,461.400482 317.369080,461.573486 317.938141,462.124939 
z"/>
<path fill="#5EA7BC" opacity="1.000000" stroke="none" 
	d="
M603.140015,463.051056 
	C601.520508,463.542542 600.278381,464.049774 597.494324,465.186676 
	C599.426880,459.908630 600.914917,455.844574 602.402954,451.780518 
	C602.934509,451.870758 603.466064,451.961029 603.997620,452.051270 
	C605.611023,456.064301 607.224487,460.077362 609.164124,464.901855 
	C606.605042,464.070190 605.061218,463.568481 603.140015,463.051056 
z"/>
<path fill="#5EA7BC" opacity="1.000000" stroke="none" 
	d="
M355.815613,455.245911 
	C354.576324,455.784210 353.412109,455.824341 352.305023,456.096741 
	C350.954773,456.429047 349.508453,456.752350 348.416504,457.522827 
	C348.084747,457.756866 348.467377,460.009369 349.086487,460.370087 
	C350.276520,461.063538 351.864014,461.097229 353.298126,461.335388 
	C353.709869,461.403748 354.160980,461.234924 355.432495,462.182404 
	C354.369385,463.129150 353.427216,464.666382 352.220856,464.913391 
	C348.413422,465.693054 346.807129,462.869293 345.423767,459.989227 
	C343.588440,456.168243 346.783936,454.406128 348.915100,452.778381 
	C351.674286,450.670929 354.047729,452.522675 355.815613,455.245911 
z"/>
<path fill="#5EA7BC" opacity="1.000000" stroke="none" 
	d="
M500.358185,453.229736 
	C504.092010,451.331390 506.905334,451.819000 509.651611,455.032806 
	C506.390381,457.162384 500.752441,453.176941 500.523712,458.429626 
	C500.294830,463.685394 505.724976,461.027405 508.994110,461.750061 
	C506.624542,466.233398 503.522369,465.489380 500.614380,463.822693 
	C497.273804,461.908051 497.197876,458.304413 500.358185,453.229736 
z"/>
<path fill="#5EA7BC" opacity="1.000000" stroke="none" 
	d="
M460.883026,462.889465 
	C460.329376,463.755066 459.714233,464.717499 459.232880,464.654663 
	C456.613770,464.312836 454.027649,463.718414 450.250183,462.980286 
	C451.561584,460.173065 453.307709,456.435242 455.683624,451.349274 
	C457.918884,456.148468 459.401093,459.330780 460.883026,462.889465 
z"/>
<path fill="#44A4C2" opacity="1.000000" stroke="none" 
	d="
M546.027222,461.108948 
	C546.226562,460.444641 546.376282,460.147675 546.567932,459.880768 
	C548.181519,457.633514 549.802856,455.391724 551.421814,453.148285 
	C553.037476,456.692657 554.653137,460.237030 556.277893,463.801453 
	C552.487793,463.801453 549.868713,463.801453 546.609985,463.801453 
	C546.547180,463.564667 546.272156,462.527435 546.027222,461.108948 
z"/>
<path fill="#5EA7BC" opacity="1.000000" stroke="none" 
	d="
M441.262939,456.552246 
	C439.158569,463.557770 445.686279,460.887543 448.447388,462.560791 
	C445.188019,465.912323 442.004883,465.669952 439.891235,463.069122 
	C438.470367,461.320648 437.686798,458.027313 438.326141,455.951050 
	C438.853760,454.237457 441.749329,452.751801 443.862213,452.215576 
	C445.128082,451.894318 446.906342,453.591949 448.454315,454.382141 
	C448.221649,454.769348 447.988983,455.156525 447.756317,455.543732 
	C445.653351,455.759064 443.550354,455.974426 441.262939,456.552246 
z"/>
<path fill="#5EA7BC" opacity="1.000000" stroke="none" 
	d="
M245.032776,456.969757 
	C243.422256,461.102264 245.461029,461.874878 248.609329,461.691772 
	C249.529419,461.638275 250.445618,461.518036 251.363617,461.428406 
	C251.510422,462.057037 251.657227,462.685669 251.804047,463.314301 
	C250.000290,463.817261 248.008469,465.068909 246.430649,464.672516 
	C242.770737,463.753052 240.937576,460.779297 242.166931,457.153870 
	C242.839981,455.169006 244.733414,452.925995 246.606964,452.232544 
	C248.108398,451.676849 250.409500,453.281647 252.355713,453.927643 
	C252.197479,454.387177 252.039261,454.846710 251.881027,455.306274 
	C249.624237,455.736664 247.367462,456.167053 245.032776,456.969757 
z"/>
<path fill="#7CD0D3" opacity="1.000000" stroke="none" 
	d="
M263.644226,321.289276 
	C264.044678,339.959290 264.056030,358.741211 263.944672,377.522400 
	C263.932587,379.561676 263.211273,381.596741 262.473175,383.795837 
	C262.416626,382.046814 262.944366,380.137451 262.958069,378.224396 
	C263.093903,359.283630 263.144592,340.342194 263.644226,321.289276 
z"/>
<path fill="#5EA7BC" opacity="1.000000" stroke="none" 
	d="
M465.021118,461.781372 
	C465.331818,459.967865 465.642731,458.555389 466.007233,456.899384 
	C464.697449,456.094757 463.315369,455.245728 461.933289,454.396667 
	C462.008972,454.088257 462.084656,453.779846 462.160339,453.471436 
	C465.310883,453.471436 468.461395,453.471436 471.945160,453.471436 
	C470.955505,455.110596 469.607635,456.620270 469.103119,458.372772 
	C468.549042,460.297424 468.771820,462.445679 468.566376,466.085907 
	C466.675659,464.004028 465.848480,463.093201 465.021118,461.781372 
z"/>
<path fill="#5EA7BC" opacity="1.000000" stroke="none" 
	d="
M533.407471,464.708191 
	C526.744385,465.036499 523.463745,459.932800 526.138306,454.020660 
	C526.470886,453.285553 527.566284,452.535645 528.347717,452.491547 
	C528.859436,452.462616 529.867004,453.662781 529.917480,454.365265 
	C530.106567,456.996613 529.993225,459.649689 529.993225,462.062561 
	C531.432434,462.990051 532.609985,463.748962 533.407471,464.708191 
z"/>
<path fill="#5EA7BC" opacity="1.000000" stroke="none" 
	d="
M619.854614,454.044678 
	C618.568115,456.202087 617.007202,457.824799 616.094910,459.754181 
	C615.400513,461.222687 615.529846,463.080658 615.292725,464.765350 
	C614.789490,464.786316 614.286316,464.807281 613.783081,464.828247 
	C613.510864,463.091797 612.853760,461.306305 613.067139,459.631714 
	C613.314819,457.687683 613.843018,456.168884 611.093750,455.875580 
	C610.791748,455.843292 610.660156,454.213715 610.449524,453.324982 
	C613.560547,454.189148 616.846497,449.858032 619.854614,454.044678 
z"/>
<path fill="#5EA7BC" opacity="1.000000" stroke="none" 
	d="
M329.829895,453.760498 
	C324.219025,455.755463 328.180359,460.610046 326.199341,464.922760 
	C324.893677,463.305023 323.466797,462.247772 323.069702,460.889435 
	C322.357971,458.454742 322.265747,455.838989 321.874573,453.009308 
	C323.658264,453.089050 326.687347,453.224457 329.829895,453.760498 
z"/>
<path fill="#5EA7BC" opacity="1.000000" stroke="none" 
	d="
M541.891663,461.979492 
	C543.265442,462.579346 544.222473,463.159729 545.950867,464.207886 
	C536.677490,465.383636 534.289062,467.696106 537.765381,452.416138 
	C539.165039,456.017212 540.320007,458.988586 541.891663,461.979492 
z"/>
<path fill="#B7F7FB" opacity="1.000000" stroke="none" 
	d="
M369.460205,363.122467 
	C359.329987,363.457733 348.743439,363.766602 338.154724,363.945953 
	C334.678040,364.004822 331.195679,363.727844 327.369690,363.384827 
	C341.016693,363.125366 355.009857,363.085510 369.460205,363.122467 
z"/>
<path fill="#7CD0D3" opacity="1.000000" stroke="none" 
	d="
M519.910095,370.607391 
	C519.536804,369.320801 518.973083,367.560791 518.983582,365.804199 
	C519.053589,354.087891 519.246216,342.372314 519.617310,330.296722 
	C519.885498,343.336487 519.935425,356.736023 519.910095,370.607391 
z"/>
<path fill="#7CD0D3" opacity="1.000000" stroke="none" 
	d="
M329.416412,343.897278 
	C332.353027,343.544403 335.760345,343.018829 339.166534,343.025970 
	C348.861328,343.046356 358.555634,343.283875 368.609070,343.632446 
	C355.940887,343.875244 342.913727,343.921570 329.416412,343.897278 
z"/>
<path fill="#7CD0D3" opacity="1.000000" stroke="none" 
	d="
M260.116547,430.441833 
	C268.321198,430.065277 276.756042,430.065277 284.987640,430.065277 
	C286.169067,428.258881 287.173309,426.723389 288.494019,425.105225 
	C288.396240,426.896423 287.981995,428.770294 287.529236,430.818420 
	C278.565094,430.818420 269.455933,430.818420 260.116547,430.441833 
z"/>
<path fill="#5EA7BC" opacity="1.000000" stroke="none" 
	d="
M432.067627,454.382568 
	C433.084930,454.024323 434.876190,454.076294 434.881989,454.207245 
	C435.034943,457.665253 435.003418,461.131439 435.003418,464.596222 
	C434.139679,464.622284 433.275940,464.648346 432.412201,464.674408 
	C432.277985,461.392822 432.143768,458.111237 432.067627,454.382568 
z"/>
<path fill="#B7F7FB" opacity="1.000000" stroke="none" 
	d="
M363.829254,320.540985 
	C352.928864,320.832886 341.821289,320.741272 330.383972,320.404358 
	C341.243500,320.158508 352.432770,320.157990 363.829254,320.540985 
z"/>
<path fill="#7CD0D3" opacity="1.000000" stroke="none" 
	d="
M529.011475,431.364777 
	C537.649963,430.833191 546.462769,430.641449 555.612549,430.628754 
	C547.101257,433.284607 538.123047,431.883301 529.011475,431.364777 
z"/>
<path fill="#7CD0D3" opacity="1.000000" stroke="none" 
	d="
M458.095398,430.369080 
	C465.480743,429.997742 473.110870,430.079773 480.736786,429.937134 
	C482.403687,429.906006 484.055603,429.073059 485.863220,428.238220 
	C487.662079,429.905579 487.310608,431.012909 484.553711,430.987610 
	C475.815369,430.907410 467.076996,430.823944 458.095398,430.369080 
z"/>
<path fill="#7CD0D3" opacity="1.000000" stroke="none" 
	d="
M386.660034,428.050964 
	C388.654968,428.575897 390.282471,429.845245 391.952545,429.903992 
	C398.697632,430.141205 405.455872,430.005249 412.691345,430.006897 
	C410.997833,430.334259 408.826416,430.907135 406.645844,430.944214 
	C399.556458,431.064819 392.463715,430.989380 384.689423,430.989380 
	C385.439148,429.718628 385.875671,428.978729 386.660034,428.050964 
z"/>
<path fill="#B7F7FB" opacity="1.000000" stroke="none" 
	d="
M356.932495,407.591980 
	C347.316650,407.882111 337.505066,407.768494 327.358093,407.409912 
	C336.927368,407.172729 346.832092,407.180481 356.932495,407.591980 
z"/>
<path fill="#B7F7FB" opacity="1.000000" stroke="none" 
	d="
M288.929871,406.687469 
	C288.499939,403.982758 287.917145,400.804504 287.890198,397.621521 
	C287.836121,391.235779 288.085663,384.847443 288.518921,378.150452 
	C288.894806,387.297760 288.961639,396.754791 288.929871,406.687469 
z"/>
<path fill="#B7F7FB" opacity="1.000000" stroke="none" 
	d="
M414.788452,320.657684 
	C405.949463,320.985260 396.890198,320.934326 387.357330,320.987610 
	C389.038513,320.762421 391.190765,320.172577 393.348511,320.151581 
	C400.420654,320.082794 407.494781,320.220734 414.788452,320.657684 
z"/>
<path fill="#5EA7BC" opacity="1.000000" stroke="none" 
	d="
M426.466003,279.944855 
	C434.094360,279.734070 442.187897,279.588287 450.634644,279.654541 
	C442.968994,279.914337 434.950073,279.962097 426.466003,279.944855 
z"/>
<path fill="#7CD0D3" opacity="1.000000" stroke="none" 
	d="
M656.123535,353.331268 
	C660.745972,353.301788 665.300232,353.667999 669.855835,354.016083 
	C671.981812,354.178528 674.110474,354.305939 676.596313,354.642456 
	C670.721619,355.174561 664.490479,355.585693 658.252808,355.753418 
	C657.539246,355.772644 656.789062,354.430481 656.123535,353.331268 
z"/>
<path fill="#7CD0D3" opacity="1.000000" stroke="none" 
	d="
M622.893555,353.700928 
	C620.148682,350.648773 619.690308,347.316803 623.717285,344.112305 
	C623.711853,347.117310 623.335876,350.210907 622.893555,353.700928 
z"/>
<path fill="#7CD0D3" opacity="1.000000" stroke="none" 
	d="
M679.995361,355.301636 
	C680.095215,353.838867 680.361694,352.673523 680.843018,351.218231 
	C680.759216,352.485229 680.460632,354.042145 679.995361,355.301636 
z"/>
<path fill="#7CD0D3" opacity="1.000000" stroke="none" 
	d="
M258.944458,428.302246 
	C259.222443,428.488068 259.547760,428.998779 259.907837,429.816650 
	C259.625671,429.624908 259.308746,429.126038 258.944458,428.302246 
z"/>
<path fill="#7CD0D3" opacity="1.000000" stroke="none" 
	d="
M326.339539,345.069366 
	C326.523865,344.777954 327.035614,344.431610 327.862854,344.041779 
	C327.674561,344.337006 327.170776,344.675720 326.339539,345.069366 
z"/>
<path fill="#7CD0D3" opacity="1.000000" stroke="none" 
	d="
M627.010376,358.730408 
	C626.839722,358.772339 626.573181,358.556488 626.150391,358.134949 
	C626.300964,358.110352 626.607666,358.291473 627.010376,358.730408 
z"/>
<path fill="#7CD0D3" opacity="1.000000" stroke="none" 
	d="
M626.000488,357.732300 
	C625.808533,357.785461 625.543884,357.571198 625.140747,357.140442 
	C625.310791,357.104218 625.619263,357.284576 626.000488,357.732300 
z"/>
<path fill="#7CD0D3" opacity="1.000000" stroke="none" 
	d="
M625.002075,356.728210 
	C624.810913,356.778290 624.547668,356.557922 624.139893,356.122528 
	C624.306824,356.090942 624.618469,356.274353 625.002075,356.728210 
z"/>
<path fill="#7CD0D3" opacity="1.000000" stroke="none" 
	d="
M677.963867,355.308716 
	C678.074890,355.041565 678.288513,355.032593 678.822754,355.035004 
	C678.784363,355.219910 678.425415,355.393372 677.963867,355.308716 
z"/>
<path fill="#7CD0D3" opacity="1.000000" stroke="none" 
	d="
M624.004883,355.740997 
	C623.827332,355.771515 623.567749,355.532196 623.156799,355.074005 
	C623.311279,355.060455 623.617065,355.265808 624.004883,355.740997 
z"/>
<path fill="#7CD0D3" opacity="1.000000" stroke="none" 
	d="
M388.708221,425.000122 
	C388.749023,425.171417 388.530518,425.431824 388.111633,425.852051 
	C388.090424,425.704315 388.269684,425.396790 388.708221,425.000122 
z"/>
<path fill="#7CD0D3" opacity="1.000000" stroke="none" 
	d="
M624.255981,344.003204 
	C624.227051,343.834290 624.461487,343.574005 624.908203,343.157837 
	C624.920166,343.305267 624.719788,343.608582 624.255981,344.003204 
z"/>
<path fill="#7CD0D3" opacity="1.000000" stroke="none" 
	d="
M626.205322,342.877869 
	C626.183411,342.623108 626.450806,342.422791 626.946533,342.116211 
	C626.948059,342.317383 626.721313,342.624847 626.205322,342.877869 
z"/>
<path fill="#7CD0D3" opacity="1.000000" stroke="none" 
	d="
M628.183594,341.929352 
	C628.151306,341.662598 628.414246,341.453125 628.909668,341.144165 
	C628.921082,341.358673 628.699951,341.672668 628.183594,341.929352 
z"/>
<path fill="#7CD0D3" opacity="1.000000" stroke="none" 
	d="
M387.726562,426.001770 
	C387.865936,426.203674 387.705505,426.480591 387.346558,426.914764 
	C387.274567,426.759796 387.367493,426.428040 387.726562,426.001770 
z"/>
<path fill="#7CD0D3" opacity="1.000000" stroke="none" 
	d="
M257.860809,427.270844 
	C258.006592,427.242188 258.321228,427.456085 258.828217,427.881042 
	C258.690277,427.899231 258.359985,427.706299 257.860809,427.270844 
z"/>
<path fill="#7CD0D3" opacity="1.000000" stroke="none" 
	d="
M456.111328,428.114441 
	C456.374634,428.087585 456.594269,428.362518 456.901031,428.887573 
	C456.681335,428.897186 456.374542,428.656708 456.111328,428.114441 
z"/>
<path fill="#000000" opacity="1.000000" stroke="none" 
	d="
M456.966766,129.829010 
	C464.939758,132.888779 473.258514,135.273178 480.816711,139.143127 
	C498.863678,148.383514 511.535492,162.612213 515.755066,182.802811 
	C519.686035,201.612442 514.245361,218.264954 501.712463,232.779221 
	C491.699951,244.374634 479.145844,251.778854 464.622009,256.051941 
	C460.442688,257.281555 456.122559,258.032471 451.093933,259.011414 
	C449.500427,259.348755 448.679993,259.677490 447.859558,260.006226 
	C447.859558,260.006226 447.435852,260.055023 446.767578,260.044495 
	C441.053925,260.074371 436.008545,260.114746 430.963165,260.155121 
	C430.963165,260.155121 430.568146,260.026886 430.190826,259.686890 
	C428.875061,259.287994 427.936615,259.229126 426.998169,259.170258 
	C410.742615,257.418030 396.255249,251.696823 383.493591,241.183273 
	C372.231171,231.904861 365.224854,220.463364 361.622009,206.373352 
	C357.086273,188.634842 361.955688,173.292450 372.358734,159.230423 
	C383.993927,143.502808 400.048462,134.783188 419.009369,130.995468 
	C419.778107,130.841904 420.477112,130.339401 421.998505,129.996094 
	C424.242798,129.672165 425.697205,129.351578 427.151611,129.031006 
	C427.151611,129.031006 427.585602,128.985229 428.257324,128.983276 
	C435.950043,128.931351 442.970978,128.881378 449.991943,128.831406 
	C449.991943,128.831406 450.405304,128.974487 450.836853,129.343903 
	C453.167847,129.751877 455.067291,129.790451 456.966766,129.829010 
M486.020844,177.127457 
	C485.274689,172.288467 482.919617,171.121582 478.967621,173.431747 
	C474.941437,175.785278 470.799500,177.940826 466.570190,180.258728 
	C464.648773,173.835159 462.797302,167.830460 454.655304,166.241013 
	C438.802124,166.165619 422.949005,166.078506 407.095734,166.057526 
	C406.458130,166.056686 405.819672,166.681824 404.748169,167.680710 
	C398.208405,168.425430 396.058624,170.454010 394.240631,177.352768 
	C394.154419,188.463776 394.055145,199.574768 394.024475,210.685928 
	C394.023071,211.190247 394.640991,211.696274 395.011322,212.930573 
	C397.322601,220.549545 402.122406,223.335175 413.057190,223.006714 
	C421.648163,222.964874 430.239136,222.923035 439.780457,222.998703 
	C442.931702,223.007706 446.082977,223.021912 449.234222,223.024734 
	C459.483063,223.033905 464.747559,218.608551 466.510529,208.426270 
	C470.865204,210.667587 475.276886,212.752121 479.496704,215.171356 
	C482.650085,216.979187 484.908417,215.799637 485.815826,213.025055 
	C486.750702,210.166519 486.583496,206.947571 487.021149,202.978897 
	C487.018555,197.912308 487.121735,192.842682 486.975708,187.780228 
	C486.880585,184.482605 486.423065,181.195419 486.020844,177.127457 
z"/>
<path fill="#5EA7BC" opacity="1.000000" stroke="none" 
	d="
M449.629272,128.638367 
	C442.970978,128.881378 435.950043,128.931351 428.463623,128.912125 
	C435.087646,128.710388 442.177155,128.577850 449.629272,128.638367 
z"/>
<path fill="#5EA7BC" opacity="1.000000" stroke="none" 
	d="
M431.324005,260.359131 
	C436.008545,260.114746 441.053925,260.074371 446.565247,260.111877 
	C441.915741,260.314240 436.800293,260.438690 431.324005,260.359131 
z"/>
<path fill="#5EA7BC" opacity="1.000000" stroke="none" 
	d="
M456.634888,129.638275 
	C455.067291,129.790451 453.167847,129.751877 451.054810,129.361496 
	C452.661865,129.155624 454.482422,129.301590 456.634888,129.638275 
z"/>
<path fill="#5EA7BC" opacity="1.000000" stroke="none" 
	d="
M426.765289,129.019653 
	C425.697205,129.351578 424.242798,129.672165 422.392822,129.926071 
	C423.457825,129.575714 424.918396,129.292007 426.765289,129.019653 
z"/>
<path fill="#5EA7BC" opacity="1.000000" stroke="none" 
	d="
M427.276672,259.352600 
	C427.936615,259.229126 428.875061,259.287994 429.984070,259.667664 
	C429.288116,259.837311 428.421661,259.686127 427.276672,259.352600 
z"/>
<path fill="#5EA7BC" opacity="1.000000" stroke="none" 
	d="
M448.199219,260.014038 
	C448.679993,259.677490 449.500427,259.348755 450.684509,259.082397 
	C450.211731,259.437134 449.375305,259.729492 448.199219,260.014038 
z"/>
<path fill="#000000" opacity="1.000000" stroke="none" 
	d="
M362.088318,458.147522 
	C362.956268,456.943085 363.827118,456.142365 364.697937,455.341675 
	C365.438599,456.709290 366.540497,458.021179 366.764099,459.468689 
	C366.872223,460.168488 365.330139,461.123199 364.535217,461.962463 
	C363.720520,460.825409 362.905823,459.688354 362.088318,458.147522 
z"/>
<path fill="#000000" opacity="1.000000" stroke="none" 
	d="
M519.962219,459.703705 
	C518.633484,460.556702 517.323181,461.011200 516.012939,461.465698 
	C515.651917,460.067871 514.862427,458.598267 515.080261,457.297302 
	C515.225769,456.427979 516.804016,455.798492 517.741089,455.061707 
	C518.487610,456.476196 519.234192,457.890717 519.962219,459.703705 
z"/>
<path fill="#000000" opacity="1.000000" stroke="none" 
	d="
M259.210144,455.369995 
	C261.038910,456.608704 262.574432,458.113129 264.109924,459.617554 
	C262.705048,460.389374 261.300171,461.161224 259.895294,461.933075 
	C259.569153,459.833954 259.243011,457.734863 259.210144,455.369995 
z"/>
<path fill="#000000" opacity="1.000000" stroke="none" 
	d="
M574.048462,459.734711 
	C574.954651,457.918762 575.888245,456.510986 576.821838,455.103241 
	C577.891479,455.848022 579.588562,456.411713 579.869324,457.384216 
	C580.207642,458.556244 579.343262,460.075470 578.999573,461.444397 
	C577.358337,461.010559 575.717102,460.576721 574.048462,459.734711 
z"/>
<path fill="#42A4C3" opacity="1.000000" stroke="none" 
	d="
M394.992584,176.886322 
	C396.058624,170.454010 398.208405,168.425430 405.421875,167.350952 
	C422.439301,167.011337 438.782959,167.001495 455.126648,166.991638 
	C462.797302,167.830460 464.648773,173.835159 466.570190,180.258728 
	C470.799500,177.940826 474.941437,175.785278 478.967621,173.431747 
	C482.919617,171.121582 485.274689,172.288467 486.027069,177.985992 
	C486.321686,187.191788 486.610077,195.539047 486.898499,203.886307 
	C486.583496,206.947571 486.750702,210.166519 485.815826,213.025055 
	C484.908417,215.799637 482.650085,216.979187 479.496704,215.171356 
	C475.276886,212.752121 470.865204,210.667587 466.510529,208.426270 
	C464.747559,218.608551 459.483063,223.033905 449.234222,223.024734 
	C446.082977,223.021912 442.931702,223.007706 438.981873,222.709900 
	C429.508057,222.574631 420.832825,222.728165 412.157623,222.881683 
	C402.122406,223.335175 397.322601,220.549545 395.013306,212.083527 
	C395.007721,199.786423 395.000153,188.336365 394.992584,176.886322 
z"/>
<path fill="#5EA7BC" opacity="1.000000" stroke="none" 
	d="
M454.890991,166.616333 
	C438.782959,167.001495 422.439301,167.011337 405.638611,167.018250 
	C405.819672,166.681824 406.458130,166.056686 407.095734,166.057526 
	C422.949005,166.078506 438.802124,166.165619 454.890991,166.616333 
z"/>
<path fill="#5EA7BC" opacity="1.000000" stroke="none" 
	d="
M394.616608,177.119537 
	C395.000153,188.336365 395.007721,199.786423 394.992859,211.718994 
	C394.640991,211.696274 394.023071,211.190247 394.024475,210.685928 
	C394.055145,199.574768 394.154419,188.463776 394.616608,177.119537 
z"/>
<path fill="#5AD4D2" opacity="1.000000" stroke="none" 
	d="
M412.607422,222.944199 
	C420.832825,222.728165 429.508057,222.574631 438.506683,222.651154 
	C430.239136,222.923035 421.648163,222.964874 412.607422,222.944199 
z"/>
<path fill="#5EA7BC" opacity="1.000000" stroke="none" 
	d="
M486.959808,203.432602 
	C486.610077,195.539047 486.321686,187.191788 486.080597,178.374054 
	C486.423065,181.195419 486.880585,184.482605 486.975708,187.780228 
	C487.121735,192.842682 487.018555,197.912308 486.959808,203.432602 
z"/>
</svg>